# xmcd CD database file generated by Grip 3.3.1
# 
# Track frame offsets:
#       183
#       14365
#       25233
#       33463
#       43795
#       53398
#       64113
#       80513
#       91838
#       105085
#       113578
#       128703
#       139598
#       150595
#       164143
#       183348
#       202020
#       218305
#       236490
#       249630
# 
# Disc length: 3561 seconds
# 
# Revision: 3
# Processed by: cddbd v1.5.2PL0 Copyright (c) Steve Scherf et al.
# Submitted via: Grip 3.3.1
# 
DISCID=fb0de714
DTITLE=Françoise Hardy - Blues 1962-1993
DYEAR=1993
DGENRE=Chanson
TTITLE0=Tous les Garçons et les filles
TTITLE1=Le temps de l'amour
TTITLE2=Le Premier bonheur du jour
TTITLE3=Mon amie la rose
TTITLE4=Ce petit cœur
TTITLE5=L'amitié
TTITLE6=La maison où j'ai grandi
TTITLE7=Il est des choses
TTITLE8=Je ne suis là poeur personne
TTITLE9=Comme
TTITLE10=Voilà
TTITLE11=Des ronds dans l'eau
TTITLE12=Comment te dire adieu?
TTITLE13=La question
TTITLE14=Message personnel
TTITLE15=J'écoute de la musique Saoule
TTITLE16=V.I.P.
TTITLE17=Partir quand même
TTITLE18=Fais-moi une place
TTITLE19=Profil (inédit)
EXTD=
EXTT0=
EXTT1=
EXTT2=
EXTT3=
EXTT4=
EXTT5=
EXTT6=
EXTT7=
EXTT8=
EXTT9=
EXTT10=
EXTT11=
EXTT12=
EXTT13=
EXTT14=
EXTT15=
EXTT16=
EXTT17=
EXTT18=
EXTT19=
PLAYORDER=
